<?xml version="1.0" encoding="UTF-8" standalone="no"?>
<!-- Created with Inkscape (http://www.inkscape.org/) -->

<svg
   width="122.28746mm"
   height="81.12001mm"
   viewBox="0 0 122.28746 81.12001"
   version="1.1"
   id="svg5"
   inkscape:version="1.1.2 (0a00cf5339, 2022-02-04)"
   sodipodi:docname="ritzatkavim.svg"
   xmlns:inkscape="http://www.inkscape.org/namespaces/inkscape"
   xmlns:sodipodi="http://sodipodi.sourceforge.net/DTD/sodipodi-0.dtd"
   xmlns="http://www.w3.org/2000/svg"
   xmlns:svg="http://www.w3.org/2000/svg">
  <sodipodi:namedview
     id="namedview7"
     pagecolor="#505050"
     bordercolor="#eeeeee"
     borderopacity="1"
     inkscape:pageshadow="0"
     inkscape:pageopacity="0"
     inkscape:pagecheckerboard="0"
     inkscape:document-units="mm"
     showgrid="false"
     inkscape:zoom="0.73940797"
     inkscape:cx="337.43212"
     inkscape:cy="421.95921"
     inkscape:window-width="1920"
     inkscape:window-height="1008"
     inkscape:window-x="0"
     inkscape:window-y="0"
     inkscape:window-maximized="1"
     inkscape:current-layer="layer1"
     inkscape:snap-global="false" />
  <defs
     id="defs2" />
  <g
     inkscape:label="Layer 1"
     inkscape:groupmode="layer"
     id="layer1">
    <circle
       style="fill:#ff4949;fill-opacity:1;stroke:#251330;stroke-width:8.15811;stroke-miterlimit:4;stroke-dasharray:none;stroke-opacity:1"
       id="path850"
       cx="61.14373"
       cy="40.560005"
       r="36.480949" />
    <g
       id="g24176"
       transform="translate(-85.471928,-40.617158)">
      <path
         style="color:#000000;fill:#f58112;stroke:#251330;stroke-width:2;stroke-linecap:round;stroke-miterlimit:4;stroke-dasharray:none;stroke-opacity:1;paint-order:normal"
         d="m 88.943156,54.992601 a 6.25,6.25 0 0 0 -2.412962,4.128911 6.25,6.25 0 0 0 5.342537,7.041212 L 192.44733,79.960776 a 6.25,6.25 0 0 0 7.04121,-5.342538 6.25,6.25 0 0 0 -5.34254,-7.041214 L 93.571405,53.778973 a 6.25,6.25 0 0 0 -4.628249,1.213628 z"
         id="path17590" />
      <path
         style="color:#000000;fill:#00a65e;fill-opacity:1;stroke:#251330;stroke-width:2;stroke-linecap:round;stroke-miterlimit:4;stroke-dasharray:none;stroke-opacity:1;paint-order:normal"
         d="m 93.108902,65.465449 a 6.25,6.25 0 0 0 -2.412953,4.128908 6.25,6.25 0 0 0 5.342528,7.041215 L 196.61309,90.433626 a 6.25,6.25 0 0 0 7.0412,-5.342539 6.25,6.25 0 0 0 -5.34253,-7.041222 L 97.737164,64.251818 a 6.25,6.25 0 0 0 -4.628262,1.213631 z"
         id="path17590-9-9" />
      <path
         style="color:#000000;fill:#004c99;fill-opacity:1;stroke:#251330;stroke-width:2;stroke-linecap:round;stroke-miterlimit:4;stroke-dasharray:none;stroke-opacity:1;paint-order:normal"
         d="m 96.155741,76.617277 a 6.25,6.25 0 0 0 -2.412956,4.128917 6.25,6.25 0 0 0 5.342533,7.04121 L 199.65991,101.58545 a 6.25,6.25 0 0 0 7.04121,-5.342535 6.25,6.25 0 0 0 -5.34252,-7.041216 L 100.784,75.403652 a 6.25,6.25 0 0 0 -4.628259,1.213625 z"
         id="path17590-9" />
    </g>
    <g
       aria-label="ריצת"
       id="text7171"
       style="font-size:29.045px;line-height:1.25;font-family:Rubik;-inkscape-font-specification:'Rubik, @wght=766';font-variation-settings:'wght' 766;fill:#f7f9c5;fill-opacity:1;stroke:#251330;stroke-width:3.526;stroke-linecap:butt;stroke-linejoin:round;stroke-miterlimit:4.1;stroke-dasharray:none;stroke-opacity:1;paint-order:stroke markers fill"
       transform="rotate(6.9123161,314.47868,-733.31735)">
      <path
         d="m 180.49059,61.814613 q -0.31949,0 -0.55185,-0.203315 -0.20332,-0.203315 -0.20332,-0.52281 v -8.59732 q 0,-1.481295 -0.72612,-2.236465 -0.72613,-0.784215 -2.26551,-0.784215 h -4.53102 q -0.29045,0 -0.52281,-0.203315 -0.20332,-0.23236 -0.20332,-0.551855 v -2.73023 q 0,-0.319495 0.20332,-0.52281 0.23236,-0.23236 0.52281,-0.23236 h 4.70529 q 2.64309,0 4.44388,0.69708 1.80079,0.668035 2.73023,2.20742 0.95849,1.539385 0.95849,4.18248 v 8.742545 q 0,0.319495 -0.23236,0.551855 -0.20332,0.203315 -0.52281,0.203315 z"
         id="path13200"
         style="fill:#f7f9c5;fill-opacity:1;stroke:#251330;stroke-width:3.526;stroke-linecap:butt;stroke-linejoin:round;stroke-miterlimit:4.1;stroke-dasharray:none;stroke-opacity:1;paint-order:stroke markers fill" />
      <path
         d="m 164.10927,54.930948 q -0.31949,0 -0.55185,-0.203315 -0.20332,-0.23236 -0.20332,-0.551855 v -8.19069 q 0,-0.319495 0.20332,-0.52281 0.23236,-0.23236 0.55185,-0.23236 h 4.00821 q 0.3195,0 0.52281,0.23236 0.23236,0.203315 0.23236,0.52281 v 8.19069 q 0,0.319495 -0.23236,0.551855 -0.20331,0.203315 -0.52281,0.203315 z"
         id="path13202"
         style="fill:#f7f9c5;fill-opacity:1;stroke:#251330;stroke-width:3.526;stroke-linecap:butt;stroke-linejoin:round;stroke-miterlimit:4.1;stroke-dasharray:none;stroke-opacity:1;paint-order:stroke markers fill" />
      <path
         d="m 146.88562,61.814613 q -0.3195,0 -0.55186,-0.203315 -0.20331,-0.23236 -0.20331,-0.551855 v -2.84641 q 0,-0.29045 0.20331,-0.493765 0.23236,-0.23236 0.55186,-0.23236 h 6.62226 l -8.30687,-11.21137 q -0.0581,-0.11618 -0.11618,-0.23236 -0.0581,-0.11618 -0.0581,-0.23236 0,-0.261405 0.17427,-0.40663 0.20331,-0.17427 0.46472,-0.17427 h 3.97916 q 0.43568,0 0.63899,0.203315 0.23236,0.203315 0.3195,0.319495 l 8.62636,11.763225 q 0.14523,0.17427 0.26141,0.40663 0.14522,0.203315 0.14522,0.551855 v 2.585005 q 0,0.319495 -0.23236,0.551855 -0.20331,0.203315 -0.52281,0.203315 z m 9.81721,-6.91271 -2.6431,-3.54349 q 0.9004,-0.63899 1.21989,-1.62652 0.34854,-1.016575 0.34854,-2.20742 v -1.51034 q 0,-0.34854 0.20332,-0.551855 0.23236,-0.23236 0.55185,-0.23236 h 3.36922 q 0.3195,0 0.52281,0.23236 0.23236,0.23236 0.23236,0.551855 v 2.468825 q 0,1.946015 -0.98753,3.630625 -0.95848,1.68461 -2.81736,2.78832 z"
         id="path13204"
         style="fill:#f7f9c5;fill-opacity:1;stroke:#251330;stroke-width:3.526;stroke-linecap:butt;stroke-linejoin:round;stroke-miterlimit:4.1;stroke-dasharray:none;stroke-opacity:1;paint-order:stroke markers fill" />
      <path
         d="m 126.4089,49.470488 q -0.31949,0 -0.55185,-0.203315 -0.20332,-0.23236 -0.20332,-0.551855 v -2.73023 q 0,-0.319495 0.20332,-0.52281 0.23236,-0.23236 0.55185,-0.23236 h 8.42305 q 2.6431,0 4.44389,0.726125 1.80079,0.726125 2.73023,2.294555 0.95848,1.56843 0.95848,4.095345 v 8.7135 q 0,0.319495 -0.23236,0.551855 -0.20331,0.203315 -0.52281,0.203315 h -3.80489 q -0.3195,0 -0.55186,-0.203315 -0.20331,-0.203315 -0.20331,-0.52281 v -8.59732 q 0,-1.481295 -0.72613,-2.236465 -0.72612,-0.784215 -2.26551,-0.784215 z m 3.89203,-2.178375 h 1.45225 q 0.9004,0 1.21989,0.34854 0.3195,0.319495 0.17427,0.69708 -0.29045,0.842305 -0.46472,1.62652 -0.17427,0.784215 -0.2614,1.62652 -0.0581,0.842305 -0.0581,1.887925 l 0.2614,7.580745 q 0,0.319495 -0.23236,0.551855 -0.20331,0.203315 -0.52281,0.203315 l -6.53512,-0.02905 q -0.29045,0 -0.52281,-0.203315 -0.20332,-0.203315 -0.20332,-0.52281 v -2.526915 q 0,-0.319495 0.20332,-0.52281 0.23236,-0.23236 0.52281,-0.23236 l 2.38169,0.02905 v -4.29866 q 0,-0.87135 0.0581,-1.68461 0.0581,-0.842305 0.23236,-1.68461 0.17427,-0.87135 0.49376,-1.80079 0.14523,-0.40663 0.52281,-0.726125 0.37759,-0.319495 1.27798,-0.319495 z"
         id="path13206"
         style="fill:#f7f9c5;fill-opacity:1;stroke:#251330;stroke-width:3.526;stroke-linecap:butt;stroke-linejoin:round;stroke-miterlimit:4.1;stroke-dasharray:none;stroke-opacity:1;paint-order:stroke markers fill" />
    </g>
    <g
       aria-label="קווים"
       id="text7171-5"
       style="font-size:29.045px;line-height:1.25;font-family:Rubik;-inkscape-font-specification:'Rubik, @wght=766';font-variation-settings:'wght' 766;fill:#f7f9c5;fill-opacity:1;stroke:#251330;stroke-width:3.526;stroke-linecap:butt;stroke-linejoin:round;stroke-miterlimit:4.1;stroke-dasharray:none;stroke-opacity:1;paint-order:stroke markers fill"
       inkscape:transform-center-x="-5.5385142"
       inkscape:transform-center-y="-19.626512"
       transform="rotate(6.8505311,224.03636,-746.73208)">
      <path
         d="m 171.04422,77.422633 q -0.3195,0 -0.55186,-0.23236 -0.20331,-0.203315 -0.20331,-0.52281 V 62.871088 q 0,-0.319495 0.20331,-0.52281 0.23236,-0.23236 0.55186,-0.23236 h 3.65967 q 0.31949,0 0.52281,0.23236 0.23236,0.203315 0.23236,0.52281 v 13.796375 q 0,0.319495 -0.23236,0.52281 -0.20332,0.23236 -0.52281,0.23236 z m 7.26125,-5.17001 q -0.29045,0.05809 -0.55186,-0.23236 -0.23236,-0.261405 -0.23236,-0.551855 v -3.223995 q 0,-0.29045 0.20332,-0.551855 0.23236,-0.29045 0.55185,-0.40663 l 0.87135,-0.34854 q 0.72613,-0.319495 1.33607,-0.81326 0.60995,-0.493765 0.95849,-1.307025 0.37758,-0.81326 0.37758,-2.09124 0,-1.074665 -0.23236,-1.713655 -0.23236,-0.668035 -0.8423,-0.958485 -0.5809,-0.319495 -1.62652,-0.319495 h -8.07451 q -0.29045,0 -0.52281,-0.203315 -0.23236,-0.23236 -0.23236,-0.551855 v -2.991635 q 0,-0.29045 0.23236,-0.493765 0.23236,-0.203315 0.52281,-0.203315 h 9.17822 q 2.585,0 4.12439,0.87135 1.56843,0.842305 2.26551,2.468825 0.69708,1.597475 0.69708,3.921075 0,1.946015 -0.66804,3.514445 -0.63899,1.56843 -1.7427,2.73023 -1.10371,1.1618 -2.49787,1.946015 -1.39416,0.784215 -2.9045,1.190845 z"
         id="path13209"
         style="fill:#f7f9c5;fill-opacity:1;stroke:#251330;stroke-width:3.526;stroke-linecap:butt;stroke-linejoin:round;stroke-miterlimit:4.1;stroke-dasharray:none;stroke-opacity:1;paint-order:stroke markers fill" />
      <path
         d="m 162.27268,71.875038 q -0.3195,0 -0.55186,-0.203315 -0.20331,-0.23236 -0.20331,-0.551855 V 56.045513 q 0,-0.319495 0.20331,-0.52281 0.23236,-0.23236 0.55186,-0.23236 h 4.00821 q 0.31949,0 0.52281,0.23236 0.23236,0.203315 0.23236,0.52281 v 15.074355 q 0,0.319495 -0.23236,0.551855 -0.20332,0.203315 -0.52281,0.203315 z"
         id="path13211"
         style="fill:#f7f9c5;fill-opacity:1;stroke:#251330;stroke-width:3.526;stroke-linecap:butt;stroke-linejoin:round;stroke-miterlimit:4.1;stroke-dasharray:none;stroke-opacity:1;paint-order:stroke markers fill" />
      <path
         d="m 153.50115,71.875038 q -0.3195,0 -0.55186,-0.203315 -0.20331,-0.23236 -0.20331,-0.551855 V 56.045513 q 0,-0.319495 0.20331,-0.52281 0.23236,-0.23236 0.55186,-0.23236 h 4.00821 q 0.31949,0 0.52281,0.23236 0.23236,0.203315 0.23236,0.52281 v 15.074355 q 0,0.319495 -0.23236,0.551855 -0.20332,0.203315 -0.52281,0.203315 z"
         id="path13213"
         style="fill:#f7f9c5;fill-opacity:1;stroke:#251330;stroke-width:3.526;stroke-linecap:butt;stroke-linejoin:round;stroke-miterlimit:4.1;stroke-dasharray:none;stroke-opacity:1;paint-order:stroke markers fill" />
      <path
         d="m 144.84579,64.991373 q -0.3195,0 -0.55186,-0.203315 -0.20331,-0.23236 -0.20331,-0.551855 v -8.19069 q 0,-0.319495 0.20331,-0.52281 0.23236,-0.23236 0.55186,-0.23236 h 4.00821 q 0.31949,0 0.52281,0.23236 0.23236,0.203315 0.23236,0.52281 v 8.19069 q 0,0.319495 -0.23236,0.551855 -0.20332,0.203315 -0.52281,0.203315 z"
         id="path13215"
         style="fill:#f7f9c5;fill-opacity:1;stroke:#251330;stroke-width:3.526;stroke-linecap:butt;stroke-linejoin:round;stroke-miterlimit:4.1;stroke-dasharray:none;stroke-opacity:1;paint-order:stroke markers fill" />
      <path
         d="m 126.40226,71.875038 q -0.3195,0 -0.55186,-0.203315 -0.20331,-0.23236 -0.20331,-0.551855 V 56.045513 q 0,-0.319495 0.20331,-0.52281 0.23236,-0.23236 0.55186,-0.23236 h 6.76748 q 2.58501,0 4.35675,0.69708 1.77175,0.668035 2.67214,2.236465 0.9004,1.539385 0.9004,4.18248 v 8.7135 q 0,0.29045 -0.23236,0.52281 -0.20332,0.23236 -0.55186,0.23236 z m 3.97916,-4.24057 h 5.66378 v -5.082875 q 0,-1.481295 -0.75517,-2.236465 -0.72613,-0.784215 -2.26551,-0.784215 h -2.6431 z"
         id="path13217"
         style="fill:#f7f9c5;fill-opacity:1;stroke:#251330;stroke-width:3.526;stroke-linecap:butt;stroke-linejoin:round;stroke-miterlimit:4.1;stroke-dasharray:none;stroke-opacity:1;paint-order:stroke markers fill" />
    </g>
  </g>
</svg>
